<svg style="" viewBox="0 0 67 67" version="1.1" xmlns="http://www.w3.org/2000/svg">
<path d="M55.156250 25.000000 C56.510423 25.000000 57.656245 25.494787 58.593750 26.484375 C59.531255 27.473963 60.000000 28.645827 60.000000 30.000000 C60.000000 31.354173 59.531255 32.526037 58.593750 33.515625 C57.656245 34.505213 56.510423 35.000000 55.156250 35.000000 L35.000000 35.000000 L35.000000 55.156250 C35.000000 56.510423 34.505213 57.656245 33.515625 58.593750 C32.526037 59.531255 31.354173 60.000000 30.000000 60.000000 C28.645827 60.000000 27.473963 59.531255 26.484375 58.593750 C25.494787 57.656245 25.000000 56.510423 25.000000 55.156250 L25.000000 35.000000 L4.843750 35.000000 C3.489577 35.000000 2.343755 34.505213 1.406250 33.515625 C0.468745 32.526037 0.000000 31.354173 0.000000 30.000000 C0.000000 28.645827 0.468745 27.473963 1.406250 26.484375 C2.343755 25.494787 3.489577 25.000000 4.843750 25.000000 L25.000000 25.000000 L25.000000 4.843750 C25.000000 3.489577 25.494787 2.343755 26.484375 1.406250 C27.473963 0.468745 28.645827 -0.000000 30.000000 -0.000000 C31.354173 -0.000000 32.526037 0.468745 33.515625 1.406250 C34.505213 2.343755 35.000000 3.489577 35.000000 4.843750 L35.000000 25.000000 Z M60.000000 60.000000" style="fill:white"/>
</svg>