<svg style="" width="72.343750" height="72.968750" version="1.1" xmlns="http://www.w3.org/2000/svg">
<path d="M72.419765 9.687500 C72.107263 6.822902 70.909358 4.492196 68.826015 2.695312 C66.742671 0.898429 64.294779 -0.000000 61.482265 -0.000000 C61.482265 -0.000000 61.456223 -0.000000 61.404140 -0.000000 C61.352056 -0.000000 61.247890 -0.000000 61.091640 -0.000000 L14.763515 -0.000000 C12.263502 -0.000000 10.102065 0.807284 8.279140 2.421875 C6.456214 4.036466 5.284351 6.015613 4.763515 8.359375 L0.076015 38.359375 C-0.236487 41.015638 0.414548 43.476551 2.029140 45.742188 C3.643731 48.007824 5.779126 49.322915 8.435390 49.687500 C8.799975 49.687500 9.086430 49.687500 9.294765 49.687500 C9.503099 49.687500 9.763513 49.687500 10.076015 49.687500 L25.779140 49.687500 L25.779140 59.687500 C25.779140 63.333352 27.081210 66.458320 29.685390 69.062500 C32.289569 71.666680 35.440579 72.968750 39.138515 72.968750 C39.763518 72.968750 40.375491 72.812502 40.974452 72.500000 C41.573413 72.187498 41.951014 71.692712 42.107265 71.015625 L54.451015 42.968750 L61.091640 42.968750 C63.956237 42.968750 66.430171 42.070321 68.513515 40.273438 C70.596858 38.476554 71.794763 36.171889 72.107265 33.359375 C72.107265 33.359375 72.107265 33.294271 72.107265 33.164062 C72.107265 33.033854 72.107265 32.968750 72.107265 32.968750 L72.107265 10.000000 C72.263515 10.000000 72.354660 9.947917 72.380702 9.843750 C72.406744 9.739583 72.419765 9.687500 72.419765 9.687500 Z M49.138515 39.296875 L37.107265 66.328125 C35.753091 65.807289 34.633311 65.000005 33.747890 63.906250 C32.862468 62.812495 32.419765 61.510424 32.419765 60.000000 L32.419765 46.640625 C32.419765 45.651037 32.120288 44.856774 31.521327 44.257812 C30.922366 43.658851 30.128103 43.359375 29.138515 43.359375 L10.076015 43.359375 C10.076015 43.359375 10.010911 43.359375 9.880702 43.359375 C9.750493 43.359375 9.607265 43.359375 9.451015 43.359375 C8.617677 43.151041 7.927580 42.695316 7.380702 41.992188 C6.833824 41.289059 6.638514 40.520837 6.794765 39.687500 L11.482265 9.687500 C11.638515 8.854163 12.016116 8.138024 12.615077 7.539062 C13.214038 6.940101 13.930177 6.640625 14.763515 6.640625 L49.138515 6.640625 Z M65.779140 32.968750 C65.622889 34.010422 65.115081 34.882809 64.255702 35.585938 C63.396323 36.289066 62.471853 36.640625 61.482265 36.640625 L55.779140 36.640625 L55.779140 6.640625 L61.482265 6.640625 C62.471853 6.484374 63.396323 6.770830 64.255702 7.500000 C65.115081 8.229170 65.622889 9.166661 65.779140 10.312500 Z M75.779140 70.000000" style="fill:black"/>
</svg>