<svg  viewBox="0 0 75 75" style="" version="1.1" xmlns="http://www.w3.org/2000/svg">
<path d="M70.312500 27.343750 C69.479163 26.354162 68.489589 25.481775 67.343750 24.726562 C66.197911 23.971350 64.973965 23.515626 63.671875 23.359375 C63.307290 23.359375 63.020834 23.359375 62.812500 23.359375 C62.604166 23.359375 62.317710 23.359375 61.953125 23.359375 L46.640625 23.359375 L46.640625 13.359375 C46.640625 9.661440 45.338555 6.510430 42.734375 3.906250 C40.130195 1.302070 36.979185 -0.000000 33.281250 -0.000000 C32.656247 -0.000000 32.044274 0.169269 31.445312 0.507812 C30.846351 0.846356 30.468751 1.354163 30.312500 2.031250 L17.968750 30.000000 L10.000000 30.000000 C7.135402 30.000000 4.752614 30.963532 2.851562 32.890625 C0.950511 34.817718 0.000000 37.187486 0.000000 40.000000 L0.000000 63.359375 C0.000000 66.171889 0.950511 68.541657 2.851562 70.468750 C4.752614 72.395843 7.135402 73.359375 10.000000 73.359375 L57.656250 73.359375 C57.656250 73.359375 57.656250 73.359375 57.656250 73.359375 C60.156262 73.359375 62.317699 72.552091 64.140625 70.937500 C65.963551 69.322909 67.135414 67.343762 67.656250 65.000000 L72.343750 35.000000 C72.500001 33.645827 72.408856 32.317715 72.070312 31.015625 C71.731769 29.713535 71.145837 28.489589 70.312500 27.343750 Z M16.640625 66.640625 L10.000000 66.640625 C8.958328 66.640625 8.138024 66.341149 7.539062 65.742188 C6.940101 65.143226 6.640625 64.348963 6.640625 63.359375 L6.640625 40.000000 C6.640625 39.010412 6.940101 38.203128 7.539062 37.578125 C8.138024 36.953122 8.958328 36.640625 10.000000 36.640625 L16.640625 36.640625 Z M60.937500 63.984375 C60.781249 64.817712 60.403649 65.468748 59.804688 65.937500 C59.205726 66.406252 58.489587 66.640625 57.656250 66.640625 C57.656250 66.640625 57.656250 66.640625 57.656250 66.640625 L23.281250 66.640625 L23.281250 33.984375 L35.312500 7.031250 C36.666673 7.500002 37.786454 8.294265 38.671875 9.414062 C39.557296 10.533860 40.000000 11.848951 40.000000 13.359375 L40.000000 26.640625 C40.000000 27.682297 40.299476 28.502601 40.898438 29.101562 C41.497399 29.700524 42.291662 30.000000 43.281250 30.000000 L62.343750 30.000000 C62.500001 30.000000 62.604166 30.000000 62.656250 30.000000 C62.708334 30.000000 62.812499 30.000000 62.968750 30.000000 C63.489586 30.000000 63.932290 30.143228 64.296875 30.429688 C64.661460 30.716147 64.999998 31.015623 65.312500 31.328125 C65.625002 31.640627 65.807291 32.031248 65.859375 32.500000 C65.911459 32.968752 65.937500 33.359373 65.937500 33.671875 Z M76.640625 70.000000" style="fill:black"/>
</svg>