<svg style="" width="62.968750" height="62.812500" version="1.1" xmlns="http://www.w3.org/2000/svg">
<path d="M31.406250 -0.000000 C27.135395 -0.000000 23.072936 0.807284 19.218750 2.421875 C15.364564 4.036466 12.031264 6.302069 9.218750 9.218750 C6.406236 12.031264 4.166675 15.338523 2.500000 19.140625 C0.833325 22.942727 0.000000 27.031228 0.000000 31.406250 C0.000000 35.781272 0.833325 39.869773 2.500000 43.671875 C4.166675 47.473977 6.406236 50.781236 9.218750 53.593750 C12.031264 56.510431 15.364564 58.776034 19.218750 60.390625 C23.072936 62.005216 27.135395 62.812500 31.406250 62.812500 C35.781272 62.812500 39.869773 62.005216 43.671875 60.390625 C47.473977 58.776034 50.833319 56.510431 53.750000 53.593750 C56.562514 50.781236 58.802075 47.473977 60.468750 43.671875 C62.135425 39.869773 62.968750 35.781272 62.968750 31.406250 C62.968750 27.031228 62.135425 22.942727 60.468750 19.140625 C58.802075 15.338523 56.562514 12.031264 53.750000 9.218750 C50.833319 6.302069 47.473977 4.036466 43.671875 2.421875 C39.869773 0.807284 35.781272 -0.000000 31.406250 -0.000000 Z M14.218750 54.531250 C14.635419 54.322916 15.104164 54.140626 15.625000 53.984375 C16.145836 53.828124 16.666664 53.645834 17.187500 53.437500 C17.708336 53.229166 18.203123 53.046876 18.671875 52.890625 C19.140627 52.734374 19.635414 52.604167 20.156250 52.500000 C21.718758 51.979164 22.994787 51.536460 23.984375 51.171875 C24.973963 50.807290 25.729164 50.468752 26.250000 50.156250 C26.770836 49.843748 27.109374 49.505210 27.265625 49.140625 C27.421876 48.776040 27.500000 48.333336 27.500000 47.812500 L27.500000 42.656250 L25.312500 42.343750 C25.208333 42.343750 24.453132 42.239584 23.046875 42.031250 C21.640618 41.822916 20.312506 41.718750 19.062500 41.718750 C18.333330 41.718750 17.786460 41.692709 17.421875 41.640625 C17.057290 41.588541 16.666669 41.458334 16.250000 41.250000 C16.770836 40.208328 17.239581 39.088548 17.656250 37.890625 C18.072919 36.692702 18.489581 35.416673 18.906250 34.062500 C19.322919 32.708327 19.687498 31.380215 20.000000 30.078125 C20.312502 28.776035 20.520833 27.500006 20.625000 26.250000 L20.781250 26.250000 L20.937500 22.812500 C21.041667 21.458327 21.380205 20.156256 21.953125 18.906250 C22.526045 17.656244 23.281245 16.614587 24.218750 15.781250 C25.156255 14.843745 26.249994 14.140627 27.500000 13.671875 C28.750006 13.203123 30.052077 12.968750 31.406250 12.968750 C32.864591 12.968750 34.192702 13.203123 35.390625 13.671875 C36.588548 14.140627 37.656245 14.843745 38.593750 15.781250 C39.531255 16.614587 40.312497 17.656244 40.937500 18.906250 C41.562503 20.156256 41.875000 21.458327 41.875000 22.812500 L42.187500 26.250000 C42.395834 27.500006 42.656248 28.776035 42.968750 30.078125 C43.281252 31.380215 43.645831 32.708327 44.062500 34.062500 C44.375002 35.416673 44.765623 36.692702 45.234375 37.890625 C45.703127 39.088548 46.145831 40.208328 46.562500 41.250000 C46.249998 41.458334 45.885419 41.588541 45.468750 41.640625 C45.052081 41.692709 44.531253 41.718750 43.906250 41.718750 C42.656244 41.718750 41.302091 41.848957 39.843750 42.109375 C38.385409 42.369793 37.604167 42.552083 37.500000 42.656250 L35.468750 43.125000 L35.468750 47.812500 C35.468750 48.333336 35.546874 48.776040 35.703125 49.140625 C35.859376 49.505210 36.197914 49.843748 36.718750 50.156250 C37.239586 50.468752 38.020828 50.807290 39.062500 51.171875 C40.104172 51.536460 41.458325 52.031247 43.125000 52.656250 C43.541669 52.760417 43.984373 52.916666 44.453125 53.125000 C44.921877 53.333334 45.364581 53.489583 45.781250 53.593750 C46.197919 53.802084 46.640623 53.984374 47.109375 54.140625 C47.578127 54.296876 48.072914 54.479166 48.593750 54.687500 C47.343744 55.520837 46.067715 56.276038 44.765625 56.953125 C43.463535 57.630212 42.083341 58.229164 40.625000 58.750000 C39.166659 59.270836 37.682299 59.661457 36.171875 59.921875 C34.661451 60.182293 33.072925 60.312500 31.406250 60.312500 C29.843742 60.312500 28.281258 60.182293 26.718750 59.921875 C25.156242 59.661457 23.645841 59.270836 22.187500 58.750000 C20.729159 58.229164 19.322923 57.630212 17.968750 56.953125 C16.614577 56.276038 15.364589 55.468755 14.218750 54.531250 Z M50.937500 52.656250 C48.229153 51.614578 45.390640 50.598963 42.421875 49.609375 C39.453110 48.619787 37.968750 48.020834 37.968750 47.812500 C37.968750 47.499998 37.968750 46.979170 37.968750 46.250000 C37.968750 45.520830 37.968750 45.156250 37.968750 45.156250 C37.968750 45.156250 38.671868 45.026043 40.078125 44.765625 C41.484382 44.505207 42.760411 44.375000 43.906250 44.375000 C44.531253 44.375000 45.078123 44.348959 45.546875 44.296875 C46.015627 44.244791 46.510414 44.114584 47.031250 43.906250 C47.447919 43.802083 47.890623 43.567710 48.359375 43.203125 C48.828127 42.838540 49.322914 42.343753 49.843750 41.718750 C49.218747 40.677078 48.593753 39.322925 47.968750 37.656250 C47.343747 35.989575 46.770836 34.270842 46.250000 32.500000 C45.729164 30.624991 45.312502 28.828134 45.000000 27.109375 C44.687498 25.390616 44.531250 23.906256 44.531250 22.656250 C44.427083 20.885408 44.010420 19.270841 43.281250 17.812500 C42.552080 16.354159 41.614589 15.052089 40.468750 13.906250 C39.322911 12.760411 37.968758 11.875003 36.406250 11.250000 C34.843742 10.624997 33.177092 10.312500 31.406250 10.312500 C29.739575 10.312500 28.125008 10.624997 26.562500 11.250000 C24.999992 11.875003 23.645839 12.760411 22.500000 13.906250 C21.249994 15.052089 20.286462 16.354159 19.609375 17.812500 C18.932288 19.270841 18.541667 20.885408 18.437500 22.656250 L18.281250 22.656250 C18.281250 23.906256 18.125002 25.390616 17.812500 27.109375 C17.499998 28.828134 17.135419 30.624991 16.718750 32.500000 C16.197914 34.270842 15.625003 35.989575 15.000000 37.656250 C14.374997 39.322925 13.750003 40.677078 13.125000 41.718750 C13.645836 42.343753 14.114581 42.838540 14.531250 43.203125 C14.947919 43.567710 15.416664 43.802083 15.937500 43.906250 C16.354169 44.114584 16.822914 44.244791 17.343750 44.296875 C17.864586 44.348959 18.437497 44.375000 19.062500 44.375000 C20.208339 44.375000 21.458327 44.479166 22.812500 44.687500 C24.166673 44.895834 24.843750 45.000000 24.843750 45.000000 C24.843750 45.000000 24.843750 45.390621 24.843750 46.171875 C24.843750 46.953129 24.843750 47.499998 24.843750 47.812500 C24.843750 48.020834 23.359390 48.619787 20.390625 49.609375 C17.421860 50.598963 14.583347 51.562495 11.875000 52.500000 C10.416659 51.249994 9.114589 49.817716 7.968750 48.203125 C6.822911 46.588534 5.885420 44.895842 5.156250 43.125000 C4.322913 41.354158 3.697919 39.479177 3.281250 37.500000 C2.864581 35.520823 2.656250 33.489594 2.656250 31.406250 C2.656250 27.447897 3.411451 23.723976 4.921875 20.234375 C6.432299 16.744774 8.489570 13.697930 11.093750 11.093750 C13.697930 8.385403 16.744774 6.276049 20.234375 4.765625 C23.723976 3.255201 27.447897 2.500000 31.406250 2.500000 C35.468770 2.500000 39.244774 3.255201 42.734375 4.765625 C46.223976 6.276049 49.270820 8.385403 51.875000 11.093750 C54.479180 13.697930 56.536451 16.744774 58.046875 20.234375 C59.557299 23.723976 60.312500 27.447897 60.312500 31.406250 C60.312500 33.489594 60.104169 35.520823 59.687500 37.500000 C59.270831 39.479177 58.645837 41.406241 57.812500 43.281250 C56.979163 45.052092 55.963548 46.744784 54.765625 48.359375 C53.567702 49.973966 52.291673 51.406244 50.937500 52.656250 Z M62.968750 66.406250" style="fill:black"/>
</svg>