<svg style="" width="64.062500" height="64.062500" version="1.1" xmlns="http://www.w3.org/2000/svg">
<path d="M32.031250 -0.000000 C27.656228 -0.000000 23.515645 0.833325 19.609375 2.500000 C15.703105 4.166675 12.291681 6.458319 9.375000 9.375000 C6.458319 12.291681 4.166675 15.703105 2.500000 19.609375 C0.833325 23.515645 0.000000 27.656228 0.000000 32.031250 C0.000000 36.406272 0.833325 40.546855 2.500000 44.453125 C4.166675 48.359395 6.458319 51.770819 9.375000 54.687500 C12.291681 57.604181 15.703105 59.895825 19.609375 61.562500 C23.515645 63.229175 27.656228 64.062500 32.031250 64.062500 C36.406272 64.062500 40.546855 63.229175 44.453125 61.562500 C48.359395 59.895825 51.770819 57.604181 54.687500 54.687500 C57.604181 51.770819 59.895825 48.359395 61.562500 44.453125 C63.229175 40.546855 64.062500 36.406272 64.062500 32.031250 C64.062500 27.656228 63.229175 23.515645 61.562500 19.609375 C59.895825 15.703105 57.604181 12.291681 54.687500 9.375000 C51.770819 6.458319 48.359395 4.166675 44.453125 2.500000 C40.546855 0.833325 36.406272 -0.000000 32.031250 -0.000000 Z M32.031250 2.656250 C36.093770 2.656250 39.895816 3.437492 43.437500 5.000000 C46.979184 6.562508 50.104153 8.645820 52.812500 11.250000 C55.416680 13.958347 57.499992 17.083316 59.062500 20.625000 C60.625008 24.166684 61.406250 27.968730 61.406250 32.031250 C61.406250 33.802092 61.250002 35.546866 60.937500 37.265625 C60.624998 38.984384 60.156253 40.624992 59.531250 42.187500 C59.010414 43.750008 58.307296 45.260409 57.421875 46.718750 C56.536454 48.177091 55.572922 49.531244 54.531250 50.781250 C53.802080 50.468748 52.864589 50.104169 51.718750 49.687500 C50.572911 49.270831 49.322923 48.802086 47.968750 48.281250 C46.718744 47.864581 45.416673 47.447919 44.062500 47.031250 C42.708327 46.614581 41.510422 46.250002 40.468750 45.937500 C40.260416 45.833333 40.130209 45.703126 40.078125 45.546875 C40.026041 45.390624 40.000000 44.947920 40.000000 44.218750 C40.000000 43.593747 40.104166 42.968753 40.312500 42.343750 C40.520834 41.718747 40.781248 41.145836 41.093750 40.625000 C41.302084 40.104164 41.562498 39.375005 41.875000 38.437500 C42.187502 37.499995 42.395833 36.614587 42.500000 35.781250 C42.812502 35.364581 43.177081 34.765629 43.593750 33.984375 C44.010419 33.203121 44.322916 32.135423 44.531250 30.781250 C44.843752 29.531244 44.973959 28.619795 44.921875 28.046875 C44.869791 27.473955 44.739584 26.927086 44.531250 26.406250 C44.531250 26.406250 44.505209 26.380209 44.453125 26.328125 C44.401041 26.276041 44.375000 26.250000 44.375000 26.250000 C44.375000 25.937498 44.401041 25.156256 44.453125 23.906250 C44.505209 22.656244 44.635416 21.406256 44.843750 20.156250 C45.052084 19.427080 45.000002 18.307299 44.687500 16.796875 C44.374998 15.286451 43.697922 13.802091 42.656250 12.343750 C42.239581 11.927081 41.770836 11.458336 41.250000 10.937500 C40.729164 10.416664 40.104170 10.000002 39.375000 9.687500 C38.645830 9.270831 37.812505 8.906252 36.875000 8.593750 C35.937495 8.281248 34.843756 8.072917 33.593750 7.968750 L30.937500 7.968750 C29.687494 8.072917 28.593755 8.281248 27.656250 8.593750 C26.718745 8.906252 25.885420 9.270831 25.156250 9.687500 C24.427080 10.000002 23.802086 10.416664 23.281250 10.937500 C22.760414 11.458336 22.343752 11.927081 22.031250 12.343750 C20.885411 13.802091 20.182293 15.286451 19.921875 16.796875 C19.661457 18.307299 19.583333 19.427080 19.687500 20.156250 C19.895834 21.406256 20.052083 22.656244 20.156250 23.906250 C20.260417 25.156256 20.260417 25.937498 20.156250 26.250000 C20.156250 26.250000 20.156250 26.276041 20.156250 26.328125 C20.156250 26.380209 20.104167 26.406250 20.000000 26.406250 C19.895833 26.927086 19.817709 27.473955 19.765625 28.046875 C19.713541 28.619795 19.791666 29.531244 20.000000 30.781250 C20.312502 32.135423 20.651040 33.203121 21.015625 33.984375 C21.380210 34.765629 21.718748 35.364581 22.031250 35.781250 C22.135417 36.614587 22.343748 37.499995 22.656250 38.437500 C22.968752 39.375005 23.229166 40.104164 23.437500 40.625000 C23.645834 41.041669 23.802083 41.562497 23.906250 42.187500 C24.010417 42.812503 24.062500 43.489580 24.062500 44.218750 C24.062500 45.052087 24.036459 45.520833 23.984375 45.625000 C23.932291 45.729167 23.854167 45.833333 23.750000 45.937500 C22.604161 46.250002 21.354173 46.640623 20.000000 47.109375 C18.645827 47.578127 17.291673 48.020831 15.937500 48.437500 C14.687494 48.958336 13.489589 49.427081 12.343750 49.843750 C11.197911 50.260419 10.312503 50.624998 9.687500 50.937500 C8.541661 49.687494 7.552087 48.333341 6.718750 46.875000 C5.885412 45.416659 5.156253 43.854175 4.531250 42.187500 C3.906247 40.624992 3.437502 38.984384 3.125000 37.265625 C2.812498 35.546866 2.656250 33.802092 2.656250 32.031250 C2.656250 27.968730 3.437492 24.166684 5.000000 20.625000 C6.562508 17.083316 8.645820 13.958347 11.250000 11.250000 C13.958347 8.645820 17.083316 6.562508 20.625000 5.000000 C24.166684 3.437492 27.968730 2.656250 32.031250 2.656250 Z M11.562500 52.968750 C12.291670 52.656248 13.203120 52.317710 14.296875 51.953125 C15.390630 51.588540 16.510411 51.197919 17.656250 50.781250 C18.802089 50.364581 19.973952 49.947919 21.171875 49.531250 C22.369798 49.114581 23.489578 48.750002 24.531250 48.437500 C25.677089 48.124998 26.328124 47.552087 26.484375 46.718750 C26.640626 45.885413 26.718750 45.052087 26.718750 44.218750 C26.718750 43.593747 26.692709 42.864587 26.640625 42.031250 C26.588541 41.197913 26.354169 40.364587 25.937500 39.531250 C25.624998 39.010414 25.364584 38.333337 25.156250 37.500000 C24.947916 36.666663 24.791667 35.833337 24.687500 35.000000 C24.687500 34.895833 24.635417 34.765626 24.531250 34.609375 C24.427083 34.453124 24.322917 34.322917 24.218750 34.218750 C24.010416 34.010416 23.750002 33.593753 23.437500 32.968750 C23.124998 32.343747 22.864584 31.406256 22.656250 30.156250 C22.447916 29.218745 22.343750 28.593752 22.343750 28.281250 C22.343750 27.968748 22.395833 27.708334 22.500000 27.500000 C22.604167 27.395833 22.656250 27.291667 22.656250 27.187500 C22.656250 27.083333 22.656250 26.979167 22.656250 26.875000 C22.864584 26.354164 22.916667 25.312508 22.812500 23.750000 C22.708333 22.187492 22.552084 20.833339 22.343750 19.687500 C22.239583 19.270831 22.291666 18.489589 22.500000 17.343750 C22.708334 16.197911 23.229163 15.052089 24.062500 13.906250 C24.479169 13.489581 24.921873 13.072919 25.390625 12.656250 C25.859377 12.239581 26.406247 11.927084 27.031250 11.718750 C27.552086 11.406248 28.151038 11.171876 28.828125 11.015625 C29.505212 10.859374 30.208330 10.729167 30.937500 10.625000 L33.437500 10.625000 C34.270837 10.729167 35.026038 10.859374 35.703125 11.015625 C36.380212 11.171876 37.031247 11.406248 37.656250 11.718750 C38.177086 11.927084 38.697914 12.239581 39.218750 12.656250 C39.739586 13.072919 40.156248 13.489581 40.468750 13.906250 C41.406255 15.052089 41.953124 16.197911 42.109375 17.343750 C42.265626 18.489589 42.343750 19.270831 42.343750 19.687500 C42.135416 20.833339 41.953126 22.187492 41.796875 23.750000 C41.640624 25.312508 41.666666 26.354164 41.875000 26.875000 C41.875000 26.979167 41.901041 27.083333 41.953125 27.187500 C42.005209 27.291667 42.031250 27.395833 42.031250 27.500000 C42.135417 27.708334 42.213541 27.968748 42.265625 28.281250 C42.317709 28.593752 42.239584 29.218745 42.031250 30.156250 C41.718748 31.406256 41.406252 32.343747 41.093750 32.968750 C40.781248 33.593753 40.520834 34.010416 40.312500 34.218750 C40.208333 34.322917 40.104167 34.453124 40.000000 34.609375 C39.895833 34.765626 39.843750 34.895833 39.843750 35.000000 C39.843750 35.833337 39.713543 36.666663 39.453125 37.500000 C39.192707 38.333337 38.906252 39.010414 38.593750 39.531250 C38.385416 40.156253 38.125002 40.859371 37.812500 41.640625 C37.499998 42.421879 37.343750 43.281245 37.343750 44.218750 C37.343750 44.947920 37.447916 45.729163 37.656250 46.562500 C37.864584 47.395837 38.541661 48.020831 39.687500 48.437500 C40.625005 48.750002 41.692702 49.088540 42.890625 49.453125 C44.088548 49.817710 45.260411 50.208331 46.406250 50.625000 C47.552089 51.041669 48.671870 51.432290 49.765625 51.796875 C50.859380 52.161460 51.822913 52.499998 52.656250 52.812500 C51.302077 54.166673 49.843758 55.364578 48.281250 56.406250 C46.718742 57.447922 45.104175 58.333330 43.437500 59.062500 C41.666658 59.791670 39.817718 60.364581 37.890625 60.781250 C35.963532 61.197919 34.010427 61.406250 32.031250 61.406250 C30.052073 61.406250 28.125009 61.197919 26.250000 60.781250 C24.374991 60.364581 22.552092 59.791670 20.781250 59.062500 C19.010408 58.333330 17.369799 57.473963 15.859375 56.484375 C14.348951 55.494787 12.916673 54.322923 11.562500 52.968750 Z M72.031250 67.031250" style="fill:black"/>
</svg>